<svg width="256" height="256" viewBox="0 0 256 256" fill="none" xmlns="http://www.w3.org/2000/svg">
<rect width="256" height="256" rx="60" fill="#1E88E5"/>
<path d="M208 72H48C41.373 72 36 77.373 36 84V172C36 178.627 41.373 184 48 184H208C214.627 184 220 178.627 220 172V84C220 77.373 214.627 72 208 72Z" fill="white" fill-opacity="0.2"/>
<path d="M208 72H48C41.373 72 36 77.373 36 84V172C36 178.627 41.373 184 48 184H208C214.627 184 220 178.627 220 172V84C220 77.373 214.627 72 208 72ZM48 88H208L128 138L48 88ZM208 168H48V104L128 154L208 104V168Z" fill="white"/>
</svg>
